<svg width="50" height="32" viewBox="0 0 50 32" fill="none" xmlns="http://www.w3.org/2000/svg">
<rect width="50" height="32" rx="3" fill="#0F3560"/>
<path d="M29.3625 23.8645H20.6133V8.14069H29.3625V23.8645Z" fill="#FF5F00"/>
<path d="M21.1738 16.0013C21.1738 12.8117 22.6672 9.97044 24.9928 8.13943C23.2922 6.8005 21.1458 6.00134 18.8132 6.00134C13.2909 6.00134 8.81445 10.4784 8.81445 16.0013C8.81445 21.5243 13.2909 26.0013 18.8132 26.0013C21.1458 26.0013 23.2922 25.2022 24.9928 23.8633C22.6672 22.0322 21.1738 19.191 21.1738 16.0013Z" fill="#EB001B"/>
<path d="M41.1615 16.0013C41.1615 21.5243 36.685 26.0013 31.1627 26.0013C28.8301 26.0013 26.6837 25.2022 24.9824 23.8633C27.3087 22.0322 28.8021 19.191 28.8021 16.0013C28.8021 12.8117 27.3087 9.97044 24.9824 8.13943C26.6837 6.8005 28.8301 6.00134 31.1627 6.00134C36.685 6.00134 41.1615 10.4784 41.1615 16.0013Z" fill="#F79E1B"/>
<path d="M16.3388 16.0646C16.3388 15.6278 16.6251 15.269 17.0928 15.269C17.5397 15.269 17.8414 15.6123 17.8414 16.0646C17.8414 16.5169 17.5397 16.8602 17.0928 16.8602C16.6251 16.8602 16.3388 16.5014 16.3388 16.0646ZM18.3508 16.0646V14.822H17.8105V15.1238C17.6391 14.9 17.3791 14.7596 17.0256 14.7596C16.3287 14.7596 15.7824 15.3059 15.7824 16.0646C15.7824 16.8239 16.3287 17.3696 17.0256 17.3696C17.3791 17.3696 17.6391 17.2292 17.8105 17.0054V17.3071H18.3508V16.0646ZM36.6106 16.0646C36.6106 15.6278 36.8969 15.269 37.3646 15.269C37.8121 15.269 38.1132 15.6123 38.1132 16.0646C38.1132 16.5169 37.8121 16.8602 37.3646 16.8602C36.8969 16.8602 36.6106 16.5014 36.6106 16.0646ZM38.6232 16.0646V13.8241H38.0823V15.1238C37.9109 14.9 37.6509 14.7596 37.2974 14.7596C36.6005 14.7596 36.0542 15.3059 36.0542 16.0646C36.0542 16.8239 36.6005 17.3696 37.2974 17.3696C37.6509 17.3696 37.9109 17.2292 38.0823 17.0054V17.3071H38.6232V16.0646ZM25.0581 15.2434C25.4063 15.2434 25.63 15.4618 25.6871 15.8462H24.3976C24.4553 15.4874 24.6731 15.2434 25.0581 15.2434ZM25.0688 14.7596C24.3404 14.7596 23.831 15.2898 23.831 16.0646C23.831 16.8549 24.3613 17.3696 25.1051 17.3696C25.4794 17.3696 25.8222 17.2762 26.1239 17.0215L25.8591 16.621C25.6508 16.787 25.3854 16.8811 25.1361 16.8811C24.788 16.8811 24.4708 16.7198 24.3928 16.2723H26.2382C26.2435 16.205 26.2489 16.1372 26.2489 16.0646C26.2435 15.2898 25.7651 14.7596 25.0688 14.7596ZM31.5934 16.0646C31.5934 15.6278 31.8797 15.269 32.3474 15.269C32.7943 15.269 33.096 15.6123 33.096 16.0646C33.096 16.5169 32.7943 16.8602 32.3474 16.8602C31.8797 16.8602 31.5934 16.5014 31.5934 16.0646ZM33.6054 16.0646V14.822H33.0651V15.1238C32.8931 14.9 32.6336 14.7596 32.2802 14.7596C31.5833 14.7596 31.037 15.3059 31.037 16.0646C31.037 16.8239 31.5833 17.3696 32.2802 17.3696C32.6336 17.3696 32.8931 17.2292 33.0651 17.0054V17.3071H33.6054V16.0646ZM28.5418 16.0646C28.5418 16.8186 29.0667 17.3696 29.8677 17.3696C30.242 17.3696 30.4913 17.2863 30.7615 17.0733L30.502 16.6365C30.2991 16.7823 30.0861 16.8602 29.8516 16.8602C29.4201 16.8549 29.103 16.543 29.103 16.0646C29.103 15.5861 29.4201 15.2743 29.8516 15.269C30.0861 15.269 30.2991 15.3469 30.502 15.4927L30.7615 15.0559C30.4913 14.8429 30.242 14.7596 29.8677 14.7596C29.0667 14.7596 28.5418 15.3106 28.5418 16.0646ZM35.5085 14.7596C35.1967 14.7596 34.9938 14.9054 34.8533 15.1238V14.822H34.3178V17.3071H34.8587V15.914C34.8587 15.5028 35.0354 15.2743 35.3889 15.2743C35.4984 15.2743 35.6127 15.2898 35.7269 15.3368L35.8936 14.8274C35.7739 14.7804 35.618 14.7596 35.5085 14.7596ZM21.0234 15.0196C20.7633 14.8482 20.4051 14.7596 20.01 14.7596C19.3804 14.7596 18.9751 15.0613 18.9751 15.5552C18.9751 15.9605 19.2768 16.2104 19.8326 16.2883L20.0879 16.3246C20.3843 16.3663 20.5241 16.4443 20.5241 16.5847C20.5241 16.7769 20.3266 16.8864 19.9576 16.8864C19.5833 16.8864 19.3131 16.7668 19.131 16.6264L18.8763 17.0471C19.1727 17.2655 19.547 17.3696 19.9522 17.3696C20.6699 17.3696 21.0859 17.0316 21.0859 16.5585C21.0859 16.1217 20.7586 15.8932 20.2176 15.8152L19.963 15.7784C19.7291 15.7474 19.5416 15.701 19.5416 15.5344C19.5416 15.3523 19.7184 15.2434 20.0147 15.2434C20.3319 15.2434 20.639 15.363 20.7895 15.4564L21.0234 15.0196ZM27.9955 14.7596C27.6837 14.7596 27.4807 14.9054 27.3409 15.1238V14.822H26.8053V17.3071H27.3457V15.914C27.3457 15.5028 27.5224 15.2743 27.8759 15.2743C27.9854 15.2743 28.0996 15.2898 28.2139 15.3368L28.3805 14.8274C28.2609 14.7804 28.105 14.7596 27.9955 14.7596ZM23.3841 14.822H22.5004V14.0681H21.9541V14.822H21.4501V15.316H21.9541V16.4496C21.9541 17.0263 22.1779 17.3696 22.817 17.3696C23.0515 17.3696 23.3216 17.297 23.493 17.1774L23.3371 16.7144C23.1759 16.8079 22.9991 16.8549 22.8587 16.8549C22.5885 16.8549 22.5004 16.6882 22.5004 16.4389V15.316H23.3841V14.822ZM15.3046 17.3071V15.7474C15.3046 15.1601 14.9303 14.7649 14.3268 14.7596C14.0097 14.7542 13.6824 14.853 13.4532 15.2017C13.2819 14.9262 13.0117 14.7596 12.632 14.7596C12.3666 14.7596 12.1071 14.8375 11.9042 15.1285V14.822H11.3633V17.3071H11.909V15.9295C11.909 15.4981 12.1482 15.269 12.5178 15.269C12.8766 15.269 13.0581 15.5028 13.0581 15.9242V17.3071H13.6044V15.9295C13.6044 15.4981 13.8537 15.269 14.2126 15.269C14.5815 15.269 14.7583 15.5028 14.7583 15.9242V17.3071H15.3046Z" fill="white"/>
</svg>
