<svg width="50" height="32" viewBox="0 0 50 32" fill="none" xmlns="http://www.w3.org/2000/svg">
<rect width="50" height="32" rx="3" fill="#FF8C00"/>
<path d="M24.5996 17.6398H25.2268V19.0455H25.68L26.4932 17.6398H27.1789L26.2029 19.2896V19.3012L27.2371 21.1016H26.5282L25.6916 19.5911H25.2387V21.1016H24.6112V17.6394H24.5996V17.6398ZM28.6428 18.5577C29.3975 18.5577 30.0135 19.1036 30.0135 19.8587C30.0135 20.6257 29.4094 21.1601 28.6544 21.1601C27.8989 21.1601 27.2948 20.6257 27.2948 19.8587C27.2833 19.0921 27.8874 18.5577 28.6428 18.5577ZM30.5014 18.6154H31.0939V20.5675H31.8724V18.6158H32.4646V20.5675H33.2432V18.6158H33.8357V21.1016H30.5245V18.6154H30.5014ZM35.5903 18.5577C36.2987 18.5577 36.6938 19.0805 36.6938 19.7312C36.6918 19.8129 36.6841 19.8944 36.6707 19.975H34.9627C34.9977 20.4047 35.3346 20.6372 35.7065 20.6372C35.9618 20.6372 36.2175 20.5209 36.415 20.37L36.6591 20.8116C36.4035 21.0319 36.02 21.1716 35.66 21.1716C34.8349 21.1716 34.3239 20.5791 34.3239 19.8703C34.3239 19.0921 34.8464 18.5577 35.5903 18.5577ZM36.9841 20.5791C37.2863 20.5325 37.507 20.2772 37.507 19.394V18.6158H39.3197V21.1016H38.7036V19.1148H38.0995V19.3936C38.0995 20.474 37.8092 21.1016 36.9841 21.1247V20.5787V20.5791ZM41.0854 18.5577C41.7939 18.5577 42.1889 19.0805 42.1889 19.7312C42.187 19.8129 42.1793 19.8944 42.1658 19.975H40.4578C40.4929 20.4047 40.8298 20.6372 41.2017 20.6372C41.457 20.6372 41.7127 20.5209 41.9102 20.37L42.1543 20.8116C41.8986 21.0319 41.5151 21.1716 41.1551 21.1716C40.3304 21.1716 39.8191 20.5791 39.8191 19.8703C39.8191 19.0921 40.3419 18.5577 41.0854 18.5577ZM42.7002 18.6154H43.3159V19.5684H43.6182L44.2223 18.6158H44.9076L44.1175 19.8006V19.8125L45.0004 21.1016H44.2804L43.6297 20.0912H43.3047V21.1016H42.6883V18.6154H42.6999H42.7002ZM28.6428 20.6257C29.0494 20.6257 29.3863 20.3119 29.3863 19.8471C29.3863 19.394 29.0494 19.0686 28.6424 19.0686C28.2362 19.0686 27.9109 19.3828 27.9109 19.8471C27.9109 20.3119 28.2358 20.6257 28.6428 20.6257ZM36.0666 19.5453C36.0666 19.2199 35.8456 19.0224 35.5668 19.0224C35.2534 19.0224 35.0208 19.2315 34.9627 19.5453H36.0666ZM41.5617 19.5453C41.5617 19.2199 41.3411 19.0224 41.0623 19.0224C40.7482 19.0224 40.516 19.2315 40.4578 19.5453H41.5617Z" fill="#2D3540"/>
<path d="M33.2778 10.0997V15.9668C33.2782 15.9883 33.2744 16.0097 33.2664 16.0296C33.2584 16.0495 33.2464 16.0676 33.2313 16.0828C33.2161 16.098 33.198 16.11 33.178 16.118C33.1581 16.1259 33.1367 16.1298 33.1153 16.1293H31.9186C31.8971 16.1298 31.8758 16.1259 31.8558 16.118C31.8359 16.11 31.8178 16.098 31.8026 16.0828C31.7874 16.0676 31.7755 16.0495 31.7675 16.0296C31.7595 16.0097 31.7556 15.9883 31.7561 15.9668V10.0997C31.7556 10.0783 31.7595 10.0569 31.7675 10.037C31.7755 10.017 31.7874 9.99894 31.8026 9.98375C31.8178 9.96856 31.8359 9.95661 31.8558 9.94862C31.8758 9.94063 31.8971 9.93676 31.9186 9.93725H33.1153C33.1367 9.93676 33.1581 9.94063 33.178 9.94862C33.198 9.95661 33.2161 9.96856 33.2313 9.98375C33.2464 9.99894 33.2584 10.017 33.2664 10.037C33.2744 10.0569 33.2782 10.0783 33.2778 10.0997ZM42.6186 9.93725C42.6652 9.93725 42.7233 9.96036 42.7811 10.0069C42.8161 10.0416 42.8161 10.0997 42.8045 10.1463L40.8293 16.025C40.8174 16.0554 40.7966 16.0816 40.7698 16.1002C40.7429 16.1188 40.7111 16.1291 40.6784 16.1297H39.6096C39.5399 16.1297 39.4817 16.0947 39.4586 16.025L38.3078 12.5978L37.1577 16.0246C37.1457 16.055 37.125 16.0812 37.0981 16.0998C37.0713 16.1185 37.0395 16.1287 37.0068 16.1293H35.9379C35.8683 16.1293 35.8101 16.0947 35.787 16.0246L33.8118 10.146C33.8003 10.0997 33.8003 10.0532 33.8349 10.0069C33.8584 9.96036 33.9165 9.93725 33.9628 9.93725H35.2988C35.3685 9.93725 35.4266 9.98347 35.4501 10.0532L36.507 13.5269L37.669 10.0532C37.681 10.0227 37.7018 9.99656 37.7286 9.97792C37.7555 9.95928 37.7873 9.94903 37.82 9.94845H38.761C38.8307 9.94845 38.8888 9.98347 38.9119 10.0532L40.0739 13.5269L41.1312 10.0532C41.1407 10.0203 41.1605 9.99125 41.1876 9.97039C41.2148 9.94953 41.2479 9.93792 41.2822 9.93725H42.6182H42.6186ZM44.64 9.93725C44.7212 9.93725 44.7909 10.0069 44.8025 10.0997V15.9668C44.803 15.9883 44.7991 16.0097 44.7911 16.0296C44.7831 16.0495 44.7712 16.0676 44.756 16.0828C44.7408 16.098 44.7227 16.11 44.7028 16.118C44.6828 16.1259 44.6615 16.1298 44.64 16.1293H43.4433C43.4218 16.1298 43.4005 16.1259 43.3806 16.118C43.3606 16.11 43.3425 16.098 43.3273 16.0828C43.3121 16.0676 43.3002 16.0495 43.2922 16.0296C43.2842 16.0097 43.2803 15.9883 43.2808 15.9668V10.0997C43.2803 10.0783 43.2842 10.0569 43.2922 10.037C43.3002 10.017 43.3121 9.99894 43.3273 9.98375C43.3425 9.96856 43.3606 9.95661 43.3806 9.94862C43.4005 9.94063 43.4218 9.93676 43.4433 9.93725H44.64ZM31.0588 15.9206C31.1285 16.0019 31.0704 16.1178 30.9657 16.1178H29.5018C29.473 16.1185 29.4443 16.1127 29.4182 16.1006C29.392 16.0885 29.3689 16.0705 29.3508 16.0481L29.1071 15.7462C28.5958 16.0712 27.9913 16.2691 27.3525 16.2691C25.5637 16.2691 24.1113 14.8167 24.1113 13.0275C24.1113 11.2383 25.5637 9.78595 27.3525 9.78595C29.1418 9.78595 30.5941 11.2383 30.5941 13.0275C30.5941 13.6666 30.4081 14.2708 30.0828 14.7817L31.0588 15.9202V15.9206ZM18.8249 18.7668C19.1271 18.883 19.2434 19.3358 19.2665 19.5334C19.3131 19.8937 19.2087 20.0331 19.0925 20.0331C18.9762 20.0331 18.8133 19.8937 18.6393 19.615C18.4649 19.3358 18.3952 19.0224 18.4884 18.8596C18.5461 18.7548 18.674 18.7086 18.8253 18.7668H18.8249ZM17.0591 20.0797C17.2451 20.0797 17.4542 20.161 17.6401 20.3234C18.0002 20.6257 18.1049 20.9741 17.9189 21.2298C17.8142 21.3576 17.6401 21.4389 17.4426 21.4389C17.2451 21.4389 17.036 21.3692 16.8967 21.2414C16.5713 20.9626 16.4785 20.4975 16.6872 20.2422C16.7688 20.1375 16.8967 20.0797 17.0591 20.0797ZM12.9932 23.4372C8.5781 23.4372 5 19.8587 5 15.444C5 11.0292 8.57846 7.45111 12.9928 7.45111C17.4076 7.45111 20.9861 11.0296 20.9861 15.444C20.9861 16.9425 20.5679 18.3486 19.8594 19.5453C19.836 19.58 19.7778 19.5684 19.7663 19.5218C19.4875 17.5585 18.2908 16.4778 16.5482 16.1528C16.3969 16.1293 16.3738 16.0365 16.5713 16.0134C17.1057 15.9668 17.8608 15.9784 18.2558 16.0481C18.2789 15.8506 18.2908 15.6415 18.2908 15.4324C18.2908 12.5162 15.9206 10.146 13.0044 10.146C10.0886 10.146 7.71833 12.5162 7.71833 15.4324C7.71833 18.3486 10.0886 20.7188 13.0048 20.7188H13.2485C13.1657 20.2472 13.1306 19.7683 13.1438 19.2896C13.1557 18.9643 13.2254 18.9177 13.3648 19.1734C14.0967 20.4397 15.1425 21.5783 17.187 22.0314C18.8599 22.4034 20.5329 22.8331 22.3337 25.1217C22.4962 25.3192 22.2524 25.5283 22.0665 25.3658C20.231 23.739 18.5581 23.2046 17.036 23.2046C15.3281 23.2165 14.1664 23.4372 12.9928 23.4372H12.9932ZM28.1542 14.6192L27.515 13.8407C27.4457 13.7595 27.5038 13.6316 27.6082 13.6316H28.9558C29.0255 13.4457 29.0605 13.2366 29.0605 13.0275C29.0605 12.0634 28.3401 11.2267 27.3525 11.2267C26.3653 11.2267 25.6446 12.0634 25.6446 13.0275C25.6446 13.9916 26.3653 14.8167 27.3525 14.8167C27.6313 14.8283 27.9104 14.747 28.1542 14.6192Z" fill="white"/>
</svg>
