<svg width="50" height="32" viewBox="0 0 50 32" fill="none" xmlns="http://www.w3.org/2000/svg">
<rect width="50" height="32" rx="3" fill="#00579F"/>
<path d="M22.4669 21.5354H19.3887L21.314 10.4999H24.3921L22.4669 21.5354Z" fill="white"/>
<path d="M33.6265 10.7698C33.0194 10.5465 32.0563 10.3 30.8656 10.3C27.8257 10.3 25.685 11.8026 25.6719 13.9509C25.6466 15.5359 27.2045 16.4163 28.3697 16.9448C29.5607 17.4848 29.9655 17.8373 29.9655 18.3187C29.9534 19.058 29.0032 19.3988 28.1169 19.3988C26.8879 19.3988 26.2294 19.2231 25.2287 18.8118L24.8233 18.6354L24.3926 21.1127C25.1145 21.4176 26.4447 21.6881 27.8257 21.7C31.0556 21.7 33.1584 20.2206 33.1833 17.9312C33.1956 16.675 32.373 15.7124 30.5994 14.9258C29.5228 14.4209 28.8634 14.0804 28.8634 13.5638C28.8761 13.0941 29.4211 12.6131 30.6365 12.6131C31.6372 12.5895 32.3725 12.8125 32.9295 13.0356L33.2079 13.1528L33.6265 10.7698Z" fill="white"/>
<path d="M37.7177 17.6259C37.9712 16.9919 38.9466 14.5382 38.9466 14.5382C38.9339 14.5618 39.1996 13.8926 39.3516 13.4817L39.5668 14.4326C39.5668 14.4326 40.1497 17.0741 40.2763 17.6259C39.7952 17.6259 38.3257 17.6259 37.7177 17.6259ZM41.5174 10.4999H39.1364C38.4021 10.4999 37.8442 10.6993 37.5274 11.4155L32.9551 21.5352H36.185C36.185 21.5352 36.7168 20.1732 36.8311 19.8798C37.1854 19.8798 40.3275 19.8798 40.7833 19.8798C40.8717 20.2673 41.1506 21.5352 41.1506 21.5352H44.0008L41.5174 10.4999Z" fill="white"/>
<path d="M16.8168 10.4999L13.8021 18.025L13.4727 16.4988C12.9154 14.7378 11.1674 12.8245 9.2168 11.8732L11.9781 21.5237H15.2333L20.0718 10.4999H16.8168Z" fill="white"/>
<path d="M11.0033 10.4999H6.05067L6 10.7229C9.86336 11.6386 12.422 13.8461 13.4732 16.4993L12.3966 11.4275C12.2193 10.7227 11.6746 10.5231 11.0033 10.4999Z" fill="#FAA61A"/>
</svg>
